<?xml version="1.0" encoding="UTF-8" standalone="no"?>
<svg width="44px" height="47px" viewBox="0 0 44 47" version="1.1" xmlns="http://www.w3.org/2000/svg" xmlns:xlink="http://www.w3.org/1999/xlink">
    <!-- Generator: Sketch 3.7.2 (28276) - http://www.bohemiancoding.com/sketch -->
    <title>Owl Colored</title>
    <desc>Created with Sketch.</desc>
    <defs>
        <path d="M39.2518186,9.54994464 C39.1615767,7.50324913 39.8181474,5.06575433 40.8415391,2.06669896 C36.5221236,3.47230796 33.6909675,3.73040138 33.3143906,3.75967474 C29.9491001,1.56075779 25.9296779,0.281024221 21.6107503,0.281024221 C16.9971951,0.281024221 12.9777729,1.66516609 9.70418768,3.90604152 C8.65738186,3.72552249 6.0003682,3.19713841 2.30630459,1.95546021 C3.80919776,5.35409689 4.2657729,7.4320173 4.23552968,9.32356401 C1.62241747,13.0305467 0.187815454,17.4449689 0.187815454,21.7086332 C0.187815454,27.4408443 1.63656349,33.9702664 3.85992833,39.303872 C4.44528108,40.7568062 4.71356775,40.555308 7.1374159,38.5437405 C5.54379306,40.9212249 8.50177559,43.9651661 10.714409,41.5310865 C9.80174647,43.401654 12.6689993,46.362654 15.0308976,42.9723114 C14.5489572,45.1126817 18.0098553,47.5057785 19.3927512,43.4299516 C19.3376305,46.953 23.6155834,46.8046817 23.6155834,43.485083 C23.9726486,46.3328927 28.1574329,46.3621661 28.5613263,43.3109066 C29.3008219,45.2927128 33.9104748,44.4071938 33.024641,41.4203356 C35.2006898,43.5597301 38.0396506,40.8665813 36.4909048,37.9899862 C38.6669536,40.4245536 38.6669536,40.4245536 39.5883964,38.5066609 C42.0517559,33.8419516 43.0351485,27.4374291 43.0351485,21.7081453 C43.0341729,17.1927301 41.6366432,13.0042007 39.2518186,9.54994464 L39.2518186,9.54994464 Z M21.6107503,24.0773356 L19.8746916,21.8447543 L23.3594916,21.8447543 L21.6107503,24.0773356 L21.6107503,24.0773356 Z M12.6304636,20.1288478 C9.55248376,20.1288478 7.05839328,17.633782 7.05839328,14.5556886 C7.05839328,11.4775952 9.55297156,8.98252941 12.6304636,8.98252941 C15.7079557,8.98252941 18.2025339,11.478083 18.2025339,14.5556886 C18.2030217,17.633782 15.7079557,20.1288478 12.6304636,20.1288478 Z M29.0629178,13.2088166 C29.2243776,13.3556713 29.3268143,13.5664394 29.3268143,13.80209 C29.3268143,14.2450934 28.9682858,14.6046678 28.5248811,14.6046678 C28.3941523,14.6046678 28.2722038,14.572955 28.1639135,14.5183114 C28.1546455,14.5919827 28.1478163,14.6666298 28.1478163,14.7432284 C28.1478163,15.7058339 28.9282867,16.485481 29.8902163,16.485481 C30.8531216,16.485481 31.6321286,15.705346 31.6321286,14.7432284 C31.6326163,13.7801349 30.8531216,13 29.8902163,13 C29.5907109,13 29.3092538,13.0756228 29.0629178,13.2088166 Z M30.1944605,20.1288478 C27.1169684,20.1288478 24.6223901,17.633782 24.6223901,14.5556886 C24.6223901,11.4775952 27.1169684,8.98252941 30.1944605,8.98252941 C33.2724403,8.98252941 35.7670186,11.478083 35.7670186,14.5556886 C35.7670186,17.633782 33.2719525,20.1288478 30.1944605,20.1288478 Z M11.8902163,13 C11.625832,13 11.3760815,13.0604983 11.1516963,13.1658824 C11.3424237,13.3122491 11.4668112,13.542045 11.4668112,13.80209 C11.4668112,14.2450934 11.1077948,14.6046678 10.6643901,14.6046678 C10.4804918,14.6046678 10.3112273,14.542218 10.1761084,14.4378097 C10.1585478,14.5373391 10.1478163,14.6388201 10.1478163,14.7432284 C10.1478163,15.7058339 10.9277989,16.485481 11.8902163,16.485481 C12.852146,16.485481 13.6326163,15.705346 13.6326163,14.7432284 C13.6326163,13.7801349 12.852146,13 11.8902163,13 Z" id="path-1"></path>
    </defs>
    <g id="Landing" stroke="none" stroke-width="1" fill="none" fill-rule="evenodd">
        <g id="Owl-Colored">
            <mask id="mask-2" fill="white">
                <use xlink:href="#path-1"></use>
            </mask>
            <use id="Shape" fill="#C0C0C0" xlink:href="#path-1"></use>
            <path d="M22.6611153,57.403367 C19.1040198,39.9272013 17.8537913,38.2432865 25.8342738,28.5204862 C33.8147564,18.7976859 47.8636089,26.2968957 48.9948705,14.3742988 C50.1261321,2.45170184 79.2588432,10.1553173 79.2588432,10.1553173 L56.9526417,85.2479956 C56.9526417,85.2479956 26.2182108,74.8795328 22.6611153,57.403367 Z" id="Path-7" fill="#00CBB9" mask="url(#mask-2)"></path>
            <path d="M-4.58111064,13.6669894 C-4.58111064,13.6669894 -4.18527632,23.8591658 6.84939815,23.859166 C17.8840726,23.8591662 33.8298988,24.4583243 28.2298247,38.9657368 C22.6297506,53.4731494 7.90711724,70.8026609 -3.13837256,54.0495959 C-14.1838624,37.2965308 -4.58111064,13.6669894 -4.58111064,13.6669894 Z" id="Path-18" fill="#2574A1" mask="url(#mask-2)"></path>
            <path d="M-0.836146256,-14.4835441 C-0.836146256,-14.4835441 -0.0573167495,-4.61841572 21.6541158,-4.61841554 C43.3655483,-4.61841536 74.7399881,-4.03848317 63.7214817,10.0034133 C52.7029752,24.0453098 23.7352462,40.8187493 2.0025338,24.6032592 C-19.7301786,8.38776901 -0.836146256,-14.4835441 -0.836146256,-14.4835441 Z" id="Path-18" fill="#50E3C2" mask="url(#mask-2)"></path>
            <circle id="Oval-1" fill="#A7A7A7" mask="url(#mask-2)" cx="12" cy="15" r="3"></circle>
            <ellipse id="Oval-2" fill="#A7A7A7" mask="url(#mask-2)" cx="30.5" cy="15" rx="3.5" ry="3"></ellipse>
        </g>
    </g>
</svg>