<?xml version="1.0" encoding="UTF-8"?>
<svg width="100px" height="100px" viewBox="0 0 100 100" version="1.1" xmlns="http://www.w3.org/2000/svg">
    <!-- Generator: Sketch 41.2 (35397) - http://www.bohemiancoding.com/sketch -->
    <title>Artboard</title>
    <desc>Created with Sketch.</desc>
    <defs></defs>
    <g id="Page-1" stroke="none" stroke-width="1" fill="none" fill-rule="evenodd">
        <g id="Artboard">
            <g id="Group" transform="translate(-28.000000, 0.000000)">
                <polygon id="Shape" fill="#DC002E"
                         points="70.8025169 0.305051583 70.8025169 43.0683242 23.1603723 43.0683242 23.1603723 58.334646 70.8025169 58.4496235 70.8025169 100.694948 85.3384009 100.694948 85.3934434 58.2392391 132.893883 58.1707418 132.893883 43.1099119 85.2845296 43.1245898 85.2845296 0.305051583"></polygon>
                <g id="Group-5" transform="translate(3.000000, 0.000000)">
                    <polygon id="Shape" fill="#004489"
                             points="0.160980887 35.4723529 33.6986657 35.4723529 0.160980887 11.9735294"></polygon>
                    <polygon id="Shape" fill="#DC002E"
                             points="0.278362784 0 0.278362784 7.96058824 39.8528309 35.4723529 52.5183375 35.4723529 2.02399928 0"></polygon>
                    <polygon id="Shape" fill="#004489" points="20.8822395 0 61.2934728 28.14 61.2934728 0"></polygon>
                </g>
                <g id="Group-3" transform="translate(91.000000, 0.000000)">
                    <polygon id="Shape" fill="#004489"
                             points="0.714343671 0 0.714343671 29.0196078 42.8594483 0"></polygon>
                    <polygon id="Shape" fill="#DC002E"
                             points="49.1707537 0 0.617652362 33.5212745 0.617652362 36.3579412 10.3887486 36.3579412 62.932564 0"></polygon>
                    <polygon id="Shape" fill="#004489"
                             points="64.8312297 12.2861765 64.8312297 36.4558824 29.7358006 36.4558824"></polygon>
                </g>
                <g id="Group-2" transform="translate(91.000000, 64.800000)">
                    <polygon id="Shape" fill="#004489"
                             points="66.7281825 0.333138889 66.7281825 25.0319444 30.4568518 0.132138889"></polygon>
                    <polygon id="Shape" fill="#DC002E"
                             points="10.6105481 0.333138889 61.8789578 35.7333333 66.7281825 35.7333333 66.7281825 29.5507222 23.8879282 0.333138889"></polygon>
                    <polygon id="Shape" fill="#004489"
                             points="0.736323476 35.7333333 41.4455283 35.7333333 0.736323476 7.56169444"></polygon>
                </g>
                <g id="Group-4" transform="translate(0.000000, 64.000000)">
                    <polygon id="Shape" fill="#DC002E"
                             points="55.3282546 0.125625 4.9196538 36 18.7039668 36 65.2478904 3.16125 65.2478904 0.125625"></polygon>
                    <polygon id="Shape" fill="#004489"
                             points="0.171366751 0.33375 0.171366751 25.19625 35.7763794 0.33375"></polygon>
                    <polygon id="Shape" fill="#004489"
                             points="25.2765957 36 65.2478904 36 65.2478904 7.918125"></polygon>
                </g>
            </g>
        </g>
    </g>
</svg>
