<?xml version="1.0" encoding="UTF-8"?>
<svg xmlns:xlink="http://www.w3.org/1999/xlink" width="107px" height="107px" viewBox="0 0 107 107" version="1.1"
     xmlns="http://www.w3.org/2000/svg">
    <!-- Generator: Sketch 42 (36781) - http://www.bohemiancoding.com/sketch -->
    <title>Icon</title>
    <desc>Created with Sketch.</desc>
    <defs>
        <circle id="path-1" cx="53.5" cy="53.5" r="53.5"></circle>
        <path d="M28.9189189,80.5598456 C31.220208,66.7379284 25.2007722,83.4517375 25.2007722,83.4517375 C25.2007722,83.4517375 23.96139,70.6447876 23.1351351,69.8185328 C22.3088803,68.992278 19.003861,73.5366795 19.003861,73.5366795 C19.003861,73.5366795 18.9866474,65.021488 16.404601,61.5766409 C9.24929506,52.0303619 -0.826254826,40.0733591 0.413127413,38.8339768 C1.65250965,37.5945946 4.54440154,42.5521236 8.26254826,40.8996139 C10.7413127,38.4208494 -4.00092912,28.5652955 1.98242245,15.2041089 C7.96577402,1.84292229 13.9491256,-1.96287431e-13 13.9491256,-1.96287431e-13 C13.9491256,-1.96287431e-13 19.9324772,15.6648394 32.3594381,19.350684 C41.2249752,21.980208 80.6190822,39.9102588 77.7329131,55.5128523 C77.7329131,55.5128523 67.7177405,47.8649759 67.2873994,49.5873994 C66.8570583,51.3098229 78.7111398,60.5284514 75.3613256,65.8826997 C75.3613256,65.8826997 69.9608682,61.7246466 68.9062098,62.8684586 C93.8689536,87.0504843 87.1382745,168.11694 87.1382745,168.11694 C87.1382745,168.11694 26.6176299,94.3817627 28.9189189,80.5598456 Z"
              id="path-3"></path>
    </defs>
    <g id="Logo" stroke="none" stroke-width="1" fill="none" fill-rule="evenodd">
        <g id="Artboard" transform="translate(-54.000000, -314.000000)">
            <g id="Icon" transform="translate(54.000000, 314.000000)">
                <mask id="mask-2" fill="white">
                    <use xlink:href="#path-1"></use>
                </mask>
                <use id="Mask" fill="#50E3C2" xlink:href="#path-1"></use>
                <g id="Animal" mask="url(#mask-2)">
                    <g transform="translate(14.459459, 12.393822)" id="Body">
                        <g transform="translate(48.390232, 86.898194) rotate(-3.000000) translate(-48.390232, -86.898194) translate(4.390232, 2.398194)">
                            <g id="Rectangle" transform="translate(-0.000000, -0.000000)">
                                <mask id="mask-4" fill="white">
                                    <use xlink:href="#path-3"></use>
                                </mask>
                                <use id="Mask" stroke="#000000" stroke-width="10" stroke-linejoin="round"
                                     xlink:href="#path-3"></use>
                                <rect fill="#E2E2E2" mask="url(#mask-4)" x="-11.3650541" y="-10.5968032"
                                      width="108.620844" height="122.554332"></rect>
                                <ellipse id="Oval" stroke="#000000" stroke-width="5" fill="#2574A1" mask="url(#mask-4)"
                                         cx="12.7984811" cy="0.230365286" rx="8.05451173" ry="8.06278501"></ellipse>
                            </g>
                            <path d="M36.7548797,28.7443195 C36.7548797,28.7443195 45.017428,29.5705743 45.017428,37.8331226"
                                  id="Eye" stroke="#000000" stroke-width="7" stroke-linecap="round"
                                  transform="translate(40.886154, 33.288721) rotate(10.000000) translate(-40.886154, -33.288721) "></path>
                        </g>
                    </g>
                </g>
            </g>
        </g>
    </g>
</svg>
