<?xml version="1.0" encoding="UTF-8"?>
<svg width="105px" height="105px" viewBox="0 0 105 105" version="1.1" xmlns="http://www.w3.org/2000/svg" xmlns:xlink="http://www.w3.org/1999/xlink">
    <!-- Generator: Sketch 42 (36781) - http://www.bohemiancoding.com/sketch -->
    <title>Icon</title>
    <desc>Created with Sketch.</desc>
    <defs>
        <circle id="path-1" cx="52.5" cy="52.5" r="52.5"></circle>
        <path d="M27.4356282,76.4278214 C29.618881,63.3148492 23.9081903,79.1713842 23.9081903,79.1713842 C23.9081903,79.1713842 22.7323776,67.0213203 21.9485026,66.2374452 C21.1646275,65.4535701 18.0291271,69.7648831 18.0291271,69.7648831 C18.0291271,69.7648831 18.0127964,61.6864473 15.5631867,58.4182912 C8.77488613,49.3616538 -0.783875091,38.0179419 0.391937546,36.8421293 C1.56775018,35.6663167 4.311313,40.3695672 7.83875091,38.801817 C10.1903762,36.4501917 -3.79571602,27.1001426 1.88074131,14.4242694 C7.55719863,1.74839629 13.233656,-1.92734717e-13 13.233656,-1.92734717e-13 C13.233656,-1.92734717e-13 18.9101133,14.8613685 30.6996785,18.3581611 C39.1104901,20.8528132 76.4840197,37.8632073 73.7458862,52.6655226 C73.7458862,52.6655226 64.2444054,45.4099161 63.8361371,47.0439942 C63.4278688,48.6780722 74.6739383,57.4238647 71.4959406,62.5034864 C71.4959406,62.5034864 66.37248,58.5587054 65.3719165,59.6438497 C89.0542872,82.5855465 82.6688338,159.493993 82.6688338,159.493993 C82.6688338,159.493993 25.2523754,89.5407936 27.4356282,76.4278214 Z" id="path-3"></path>
    </defs>
    <g id="Logo" stroke="none" stroke-width="1" fill="none" fill-rule="evenodd">
        <g id="Artboard" transform="translate(-54.000000, -314.000000)">
            <g id="Icon" transform="translate(54.000000, 314.000000)">
                <mask id="mask-2" fill="white">
                    <use xlink:href="#path-1"></use>
                </mask>
                <use id="Mask" fill="#50E3C2" xlink:href="#path-1"></use>
                <g id="Animal" mask="url(#mask-2)">
                    <g transform="translate(55.866213, 96.587318) rotate(7.000000) translate(-55.866213, -96.587318) translate(9.366213, 14.087318)" id="Body">
                        <g transform="translate(46.156018, 82.261974) rotate(-3.000000) translate(-46.156018, -82.261974) translate(4.156018, 2.261974)">
                            <g id="Rectangle" transform="translate(-0.000000, -0.000000)">
                                <mask id="mask-4" fill="white">
                                    <use xlink:href="#path-3"></use>
                                </mask>
                                <use id="Mask" stroke="#000000" stroke-width="10" stroke-linejoin="round" xlink:href="#path-3"></use>
                                <rect fill="#00CBB9" mask="url(#mask-4)" x="-10.782125" y="-10.0532787" width="103.049533" height="116.268354"></rect>
                                <ellipse id="Oval" stroke="#000000" stroke-width="5" fill="#2574A1" mask="url(#mask-4)" cx="12.1420295" cy="0.218549537" rx="7.64138486" ry="7.64923379"></ellipse>
                            </g>
                            <path d="M34.8696719,27.2699842 C34.8696719,27.2699842 42.7084228,28.0538593 42.7084228,35.8926102" id="Eye" stroke="#000000" stroke-width="7" stroke-linecap="round" transform="translate(38.789047, 31.581297) rotate(10.000000) translate(-38.789047, -31.581297) "></path>
                        </g>
                    </g>
                </g>
            </g>
        </g>
    </g>
</svg>