<?xml version="1.0" encoding="UTF-8"?>
<svg width="44px" height="47px" viewBox="0 0 44 47" version="1.1" xmlns="http://www.w3.org/2000/svg" xmlns:xlink="http://www.w3.org/1999/xlink">
    <!-- Generator: Sketch 41.2 (35397) - http://www.bohemiancoding.com/sketch -->
    <title>Owl Colored</title>
    <desc>Created with Sketch.</desc>
    <defs>
        <path d="M2.18465389,24.5376715 C2.18465389,19.8188885 1.09232694,13.2125924 1.09232694,13.2125924 C1.09232694,13.2125924 -1.09232694,6.60629618 3.27698083,2.83126979 C7.6462886,-0.943756598 15.2925772,1.11022302e-15 18.569558,2.83126979 C21.8465389,5.66253959 19.661885,15.1001056 19.661885,15.1001056 L19.661885,24.5376715 C19.661885,24.5376715 2.18465389,29.2564545 2.18465389,24.5376715 Z" id="path-1"></path>
        <path d="M7.01691866,2.28490023 C10.8798044,4.92327575 14.7426901,11.9589438 14.7426901,11.9589438 L11.8455258,14.5973193 C11.8455258,14.5973193 5.08547581,12.8384023 3.15403296,9.3205683 C1.22259012,5.80273426 -0.708852733,1.40544172 0.256868691,0.525983213 C1.22259012,-0.353475296 3.15403296,-0.353475296 7.01691866,2.28490023 Z" id="path-3"></path>
        <path d="M9.68170761,4.53921119 C13.8051614,7.26153986 17.9286152,14.521083 17.9286152,14.521083 L14.8360248,17.2434117 C14.8360248,17.2434117 7.61998072,15.4285259 5.55825383,11.7987543 C3.49652694,8.16898275 1.43480005,3.63176829 2.46566349,2.7243254 C3.49652694,1.81688251 5.55825383,1.81688251 9.68170761,4.53921119 Z" id="path-5"></path>
    </defs>
    <g id="Logged-Out" stroke="none" stroke-width="1" fill="none" fill-rule="evenodd">
        <g id="Owl-Colored">
            <g id="Group-2" transform="translate(3.000000, 2.000000)">
                <g id="Path-7" transform="translate(9.228081, 13.295704)">
                    <mask id="mask-2" fill="white">
                        <use xlink:href="#path-1"></use>
                    </mask>
                    <g id="Mask"></g>
                    <path d="M-9.03218735,32.4465179 C-12.9176986,15.9532712 -14.2833569,14.3640655 -5.56606076,5.18810858 C3.15123539,-3.9878483 18.4971754,3.08958038 19.7328829,-8.16244913 C20.9685905,-19.4144786 52.7910357,-12.1441407 52.7910357,-12.1441407 L28.4253708,58.7250699 C28.4253708,58.7250699 -5.14667606,48.9397647 -9.03218735,32.4465179 Z" fill="#00CBB9" mask="url(#mask-2)" transform="translate(20.366235, 22.135151) rotate(13.000000) translate(-20.366235, -22.135151) "></path>
                </g>
                <g id="Path-18" transform="translate(9.761060, 11.290888) rotate(11.000000) translate(-9.761060, -11.290888) translate(2.261060, 3.790888)">
                    <mask id="mask-4" fill="white">
                        <use xlink:href="#path-3"></use>
                    </mask>
                    <use id="Combined-Shape" fill="#D8D8D8" xlink:href="#path-3"></use>
                    <path d="M-13.311738,-20.8439757 C-13.311738,-20.8439757 -12.8727902,-9.67772183 -0.636239609,-9.67772162 C11.600311,-9.67772142 29.2829267,-9.02130116 23.072903,6.87260069 C16.8628793,22.7665025 0.536684271,41.7522145 -11.7118596,23.3980407 C-23.9604035,5.04386681 -13.311738,-20.8439757 -13.311738,-20.8439757 Z" fill="#2574A1" mask="url(#mask-4)" transform="translate(3.376631, 5.043855) rotate(13.000000) translate(-3.376631, -5.043855) "></path>
                </g>
                <g id="Path-18" transform="translate(26.918226, 11.264194) rotate(-2.000000) translate(-26.918226, -11.264194) translate(16.918226, 1.264194)">
                    <mask id="mask-6" fill="white">
                        <use xlink:href="#path-5"></use>
                    </mask>
                    <use id="Mask" fill="#D8D8D8" transform="translate(10.060042, 9.712509) rotate(75.000000) translate(-10.060042, -9.712509) " xlink:href="#path-5"></use>
                    <path d="M-11.572135,-19.9681794 C-11.572135,-19.9681794 -10.7692682,-11.0161388 11.612254,-11.0161387 C33.9937762,-11.0161385 66.3365393,-10.4898832 54.9779638,2.25233598 C43.6193883,14.9945551 13.7576153,30.2154936 -8.64584351,15.5008623 C-31.0493023,0.786231049 -11.572135,-19.9681794 -11.572135,-19.9681794 Z" fill="#50E3C2" mask="url(#mask-6)" transform="translate(18.952080, 0.786221) rotate(13.000000) translate(-18.952080, -0.786221) "></path>
                </g>
            </g>
        </g>
    </g>
</svg>